<svg width="32" height="40" viewBox="0 0 43 54" fill="none" xmlns="http://www.w3.org/2000/svg">
    <g filter="url(#filter0_d_1_12)">
        <path d="M36.956 22.6957C36.48 21.5635 35.9375 20.2807 35.4107 18.697C34.0282 14.5512 38.4452 10.0292 38.4872 9.98725L36.0127 7.51275C35.7677 7.75775 30.0225 13.5992 32.0892 19.803C32.6597 21.5145 33.2302 22.8655 33.7307 24.0555C34.8986 26.363 35.5049 28.9138 35.5 31.5C35.2949 33.5846 34.4946 35.5662 33.1945 37.2085C31.8944 38.8509 30.1494 40.0847 28.1675 40.7627C28.7936 38.3087 28.7843 35.7356 28.1404 33.2862C27.4965 30.8367 26.2392 28.5917 24.4872 26.7627L22.6602 24.9357L21.6417 27.3105C18.4287 34.8075 14.605 38.08 12.3562 39.445C10.9758 38.5995 9.8157 37.4385 8.97145 36.0572C8.1272 34.676 7.62289 33.1141 7.5 31.5C7.62072 29.297 8.1731 27.1392 9.12575 25.1492C10.2556 22.7504 10.8929 20.1494 11 17.5V14.3885C12.5295 15.0185 14.5 16.6687 14.5 21V25.5552L17.5502 22.1707C22.9962 16.1262 21.8605 8.9285 19.6607 4.13175C21.3329 4.68912 22.7688 5.79297 23.7373 7.26558C24.7058 8.73819 25.1506 10.4939 25 12.25H28.5C28.5 2.56025 20.4867 0 16.25 0H12.75L14.85 2.79825C15.0897 3.122 19.8585 9.6705 17.2177 16.2522C16.6301 14.5983 15.5532 13.1622 14.13 12.1348C12.7069 11.1074 11.0049 10.5372 9.25 10.5H7.5V17.5C7.37928 19.703 6.8269 21.8607 5.87425 23.8507C4.74444 26.2496 4.10713 28.8506 4 31.5C4 38.234 10.6902 45.5 21.5 45.5C32.3097 45.5 39 38.234 39 31.5C39.0026 28.4474 38.3033 25.435 36.956 22.6957ZM15.9612 41.1705C17.6238 39.7943 19.1218 38.2401 20.4305 36.5398C21.6629 34.9387 22.7275 33.2079 23.6035 31.374C24.5678 32.9311 25.1157 34.71 25.1945 36.5398C25.2732 38.3697 24.8802 40.189 24.0532 41.8232C23.2069 41.9371 22.354 41.9962 21.5 42C19.6219 42.013 17.7532 41.7331 15.9612 41.1705Z" fill="#BD00FF"/>
        <path d="M36.5008 22.9032L36.4951 22.8895L36.4619 22.8107C35.994 21.6979 35.4575 20.422 34.9363 18.8548C34.1768 16.5767 35.0215 14.2488 35.9797 12.5568C36.6362 11.3976 37.3762 10.483 37.7959 10.003L36.0244 8.23153C35.5029 8.81298 34.4878 10.0412 33.6253 11.6586C32.447 13.8683 31.5922 16.729 32.5636 19.6449L36.5008 22.9032ZM36.5008 22.9032L36.5073 22.9164C37.8208 25.5869 38.5026 28.5236 38.5 31.4996V31.5C38.5 37.8993 32.0961 45 21.5 45C10.9095 45 4.5067 37.9067 4.50001 31.51C4.60563 28.9314 5.22647 26.4001 6.32594 24.0652C7.30644 22.0165 7.87498 19.7952 7.99925 17.5274L8 17.5137V17.5V11M36.5008 22.9032L8 11M8 11H9.24463C10.8962 11.0361 12.4979 11.5732 13.8374 12.5402C15.1783 13.5082 16.1929 14.8613 16.7466 16.4196L17.1894 17.6658L17.6818 16.4384C19.0646 12.9918 18.4995 9.57378 17.585 7.01048C16.6698 4.44523 15.3863 2.68228 15.2518 2.50069L15.2518 2.50068L15.2499 2.49813L13.7504 0.5H16.25C18.2864 0.5 21.2391 1.11921 23.6687 2.89501C25.9872 4.58955 27.8604 7.35739 27.9925 11.75H25.527C25.5614 10.0657 25.0854 8.40546 24.155 6.99083C23.1248 5.42443 21.5975 4.25028 19.8189 3.65741L18.7261 3.29315L19.2063 4.34017C21.3636 9.04441 22.4361 16.0009 17.1788 21.836C17.1788 21.836 17.1788 21.836 17.1788 21.8361L15 24.2536V21C15 18.7574 14.4891 17.1608 13.7405 16.0302C12.9914 14.899 12.0292 14.2717 11.1904 13.9262L10.5 13.6418V14.3885V17.4898C10.3944 20.0685 9.77355 22.5999 8.67405 24.9348C7.69355 26.9835 7.12502 29.2048 7.00075 31.4726L6.99896 31.5053L7.00144 31.538C7.13034 33.231 7.65931 34.8693 8.54483 36.318C9.43035 37.7668 10.6471 38.9846 12.0951 39.8714L12.3551 40.0306L12.6157 39.8724C14.9595 38.4497 18.85 35.0937 22.1013 27.5076C22.1013 27.5075 22.1013 27.5075 22.1013 27.5075L22.8288 25.8114L24.1299 27.1125C25.8212 28.8794 27.0349 31.0477 27.6568 33.4133C28.2791 35.7806 28.2881 38.2674 27.683 40.6391L27.4544 41.5352L28.3294 41.2358C30.402 40.5267 32.2269 39.2364 33.5865 37.5189C34.9461 35.8013 35.7831 33.729 35.9976 31.549L35.9999 31.525L36 31.5009C36.005 28.8419 35.3831 26.2191 34.1849 23.8455L34.1708 23.812C33.6754 22.6343 33.1196 21.3129 32.5636 19.645L8 11ZM21.5028 42.5C22.3782 42.496 23.2524 42.4355 24.1199 42.3188L24.3806 42.2837L24.4994 42.049C25.3651 40.3383 25.7764 38.4338 25.694 36.5183C25.6116 34.6028 25.0381 32.7407 24.0286 31.1107L23.5468 30.3328L23.1523 31.1585C22.2915 32.9606 21.2454 34.6614 20.0343 36.2349C18.7483 37.9057 17.2762 39.4329 15.6424 40.7853L14.9337 41.372L15.8115 41.6475C17.6528 42.2256 19.573 42.5132 21.5028 42.5ZM21.5028 42.5C21.5026 42.5 21.5024 42.5 21.5022 42.5L21.5 42M21.5028 42.5C21.503 42.5 21.5032 42.5 21.5034 42.5L21.5 42M21.5 42C22.354 41.9962 23.2069 41.9371 24.0532 41.8232L21.5 42Z" stroke="black"/>
    </g>
    <defs>
        <filter id="filter0_d_1_12" x="0" y="0" width="43" height="53.5" filterUnits="userSpaceOnUse" color-interpolation-filters="sRGB">
            <feFlood flood-opacity="0" result="BackgroundImageFix"/>
            <feColorMatrix in="SourceAlpha" type="matrix" values="0 0 0 0 0 0 0 0 0 0 0 0 0 0 0 0 0 0 127 0" result="hardAlpha"/>
            <feOffset dy="4"/>
            <feGaussianBlur stdDeviation="2"/>
            <feComposite in2="hardAlpha" operator="out"/>
            <feColorMatrix type="matrix" values="0 0 0 0 0 0 0 0 0 0 0 0 0 0 0 0 0 0 0.25 0"/>
            <feBlend mode="normal" in2="BackgroundImageFix" result="effect1_dropShadow_1_12"/>
            <feBlend mode="normal" in="SourceGraphic" in2="effect1_dropShadow_1_12" result="shape"/>
        </filter>
    </defs>
</svg>
